# xmcd
#
# Track frame offsets:
#	150
#	14589
#	23006
#	30636
#	43218
#	52233
#	76618
#	91477
#	114194
#	127524
#	142296
#	156398
#
# Disc length: 2303 seconds
#
# Revision: 0
# Processed by: cddbd v1.5.1PL0 Copyright (c) Steve Scherf et al.
# Submitted via: dBpowerAMP V4.0
#
DISCID=9708fd0c
DTITLE=Frank Sinatra - Frank Sinatra Volume 2
DYEAR=1900
DGENRE=Blues
TTITLE0=Love Me a I am
TTITLE1=Somebody Loves Me
TTITLE2='s Wonderful
TTITLE3=All Of Me
TTITLE4=On The Sunny Side Of The Street
TTITLE5=Porgy And Bessy Medley
TTITLE6=Too Romantic
TTITLE7=Let´s Get Away From It All
TTITLE8=Two In Love
TTITLE9=Oh! Look At Me Now
TTITLE10=I´ll Be Seeing You
TTITLE11=The One I Love Belong To Somebody Else
EXTD=Compendium from CROMOS magazine, Colombia
EXTT0=
EXTT1=
EXTT2=
EXTT3=
EXTT4=
EXTT5=
EXTT6=
EXTT7=
EXTT8=
EXTT9=
EXTT10=
EXTT11=
PLAYORDER=
